<svg xmlns="http://www.w3.org/2000/svg" x="0px" y="0px" width="100" height="100" viewBox="0,0,256,256">
<g fill="#ffffff" fill-rule="nonzero" stroke="none" stroke-width="1" stroke-linecap="butt" stroke-linejoin="miter" stroke-miterlimit="10" stroke-dasharray="" stroke-dashoffset="0" font-family="none" font-weight="none" font-size="none" text-anchor="none" style="mix-blend-mode: normal"><path d="M0,256v-256h256v256z" id="bgRectangle"></path></g><g fill="#000000" fill-rule="nonzero" stroke="none" stroke-width="1" stroke-linecap="butt" stroke-linejoin="miter" stroke-miterlimit="10" stroke-dasharray="" stroke-dashoffset="0" font-family="none" font-weight="none" font-size="none" text-anchor="none" style="mix-blend-mode: normal"><g transform="scale(5.12,5.12)"><path d="M8,3.01172c-1.67564,0 -3.14828,0.44393 -4.23633,1.29883c-1.08805,0.8549 -1.75195,2.15347 -1.75195,3.58984c0,2.87275 2.59308,5.08789 5.98828,5.08789c1.74123,0 3.2347,-0.51087 4.30469,-1.42578c1.06998,-0.91491 1.68359,-2.24005 1.68359,-3.66211c-0.00031,-0.01499 -0.00096,-0.02996 -0.00195,-0.04492c-0.12468,-2.74403 -2.61308,-4.84375 -5.98633,-4.84375zM8,4.98828c2.61245,0 3.91956,1.28856 4.00781,2.93164c-0.00543,0.86831 -0.33859,1.58704 -0.98828,2.14258c-0.65502,0.56009 -1.66076,0.94922 -3.01953,0.94922c-2.6048,0 -4.01172,-1.38408 -4.01172,-3.11133c0,-0.86362 0.3361,-1.51505 0.99805,-2.03516c0.66195,-0.5201 1.68932,-0.87695 3.01367,-0.87695zM3,15c-0.55226,0.00006 -0.99994,0.44774 -1,1v29c0.00006,0.55226 0.44774,0.99994 1,1h10c0.55226,-0.00006 0.99994,-0.44774 1,-1v-9.30078v-19.69922c-0.00006,-0.55226 -0.44774,-0.99994 -1,-1zM18,15c-0.55226,0.00006 -0.99994,0.44774 -1,1v29.09961c0.00006,0.55226 0.44774,0.99994 1,1h10c0.55226,-0.00006 0.99994,-0.44774 1,-1v-16v-0.29883v-0.30078c0,-1.96667 1.53333,-3.5 3.5,-3.5c1.96667,0 3.5,1.53333 3.5,3.5v16.5c0.00006,0.55226 0.44774,0.99994 1,1h10c0.55226,-0.00006 0.99994,-0.44774 1,-1v-17c0,-4.14409 -1.21832,-7.41366 -3.26367,-9.63867c-2.04536,-2.22501 -4.8915,-3.36133 -7.93555,-3.36133c-3.9082,0 -6.27819,1.42177 -7.80078,2.58398v-1.58398c-0.00006,-0.55226 -0.44774,-0.99994 -1,-1zM4,17h8v18.69922v8.30078h-8zM19,17h8v2.59961c0.00045,0.41195 0.25346,0.78148 0.63736,0.9309c0.3839,0.14942 0.82015,0.04814 1.09896,-0.25512c0,0 3.00082,-3.27539 8.06445,-3.27539c2.55595,0 4.80825,0.91486 6.46289,2.71484c1.65464,1.79998 2.73633,4.52925 2.73633,8.28516v16h-8v-15.5c0.00126,-0.14111 -0.02737,-0.28089 -0.08398,-0.41016c-0.22112,-2.83193 -2.52817,-5.08984 -5.41602,-5.08984c-3.03333,0 -5.5,2.46667 -5.5,5.5v0.30078v0.29883v15h-8z"></path></g></g>
</svg>